<svg version="1.2" xmlns="http://www.w3.org/2000/svg" viewBox="0 0 1521 333" width="1521" height="333">
	<style>
		.s0 { fill: #b1b3b4 } 
		.s1 { fill: #000000 } 
	</style>
	<g id="Layer 1">
		<g id="fish">
			<path class="s0" d="m523.73 129.56c4.36 0.75 7.28 4.88 6.54 9.24l-1.88 10.94c-0.74 4.35-4.88 7.28-9.23 6.53-4.36-0.75-7.28-4.88-6.54-9.24l1.88-10.94c0.74-4.35 4.88-7.28 9.23-6.53z"/>
			<path class="s0" d="m491.06 130.76c4.36 0.75 7.28 4.88 6.54 9.24l-5.31 30.95c-0.74 4.35-4.87 7.28-9.23 6.53-4.36-0.75-7.28-4.88-6.54-9.24l5.31-30.95c0.74-4.35 4.88-7.28 9.23-6.53z"/>
			<path class="s0" d="m458.42 132.98c4.36 0.75 7.28 4.88 6.53 9.24l-6.09 35.58c-0.75 4.35-4.88 7.28-9.24 6.53-4.35-0.74-7.28-4.88-6.53-9.23l6.09-35.59c0.75-4.35 4.88-7.28 9.24-6.53z"/>
			<path class="s0" d="m425.8 133.89c4.35 0.74 7.28 4.87 6.53 9.23l-6.01 35.09c-0.75 4.36-4.88 7.28-9.23 6.53-4.36-0.74-7.29-4.87-6.54-9.23l6.01-35.09c0.75-4.36 4.88-7.28 9.24-6.53z"/>
			<path class="s0" d="m393.29 134.1c4.36 0.75 7.29 4.88 6.54 9.24l-5.07 29.57c-0.74 4.35-4.88 7.28-9.23 6.53-4.36-0.75-7.28-4.88-6.54-9.24l5.07-29.57c0.74-4.35 4.88-7.28 9.23-6.53z"/>
			<path class="s0" d="m358.08 151.3c4.36 0.75 7.29 4.88 6.54 9.24l-0.91 5.32c-0.75 4.36-4.88 7.28-9.24 6.54-4.36-0.75-7.28-4.88-6.53-9.24l0.91-5.32c0.74-4.36 4.88-7.28 9.23-6.54z"/>
			<path class="s1" d="m119.57 9.7c4.36 0.74 7.28 4.88 6.53 9.23l-0.57 3.35c-0.75 4.36-4.88 7.28-9.24 6.54-4.35-0.75-7.28-4.88-6.53-9.24l0.57-3.35c0.75-4.36 4.88-7.28 9.24-6.53z"/>
			<path class="s1" d="m151.54 17.91c4.36 0.75 7.28 4.88 6.54 9.24l-2.49 14.49c-0.74 4.35-4.88 7.28-9.23 6.53-4.36-0.74-7.28-4.88-6.54-9.23l2.49-14.49c0.74-4.36 4.87-7.28 9.23-6.54z"/>
			<path class="s1" d="m184.69 19.23c4.36 0.75 7.29 4.88 6.54 9.24l-10.37 60.51c-0.74 4.36-4.88 7.29-9.23 6.54-4.36-0.75-7.28-4.88-6.54-9.24l10.37-60.52c0.75-4.35 4.88-7.28 9.23-6.53z"/>
			<path class="s1" d="m218.3 18.49c4.36 0.75 7.28 4.88 6.54 9.24l-0.68 3.94c-0.75 4.36-4.88 7.28-9.24 6.54-4.35-0.75-7.28-4.88-6.53-9.24l0.68-3.94c0.74-4.36 4.88-7.28 9.23-6.54z"/>
			<path class="s1" d="m209.29 71.13c4.35 0.74 7.28 4.88 6.53 9.23l-7.14 41.7c-0.75 4.35-4.88 7.28-9.24 6.53-4.35-0.75-7.28-4.88-6.53-9.24l7.14-41.69c0.75-4.36 4.88-7.28 9.24-6.53z"/>
			<path class="s1" d="m503.12 60.39c4.35 0.74 7.28 4.87 6.53 9.23l-7.46 43.57c-0.75 4.35-4.88 7.28-9.24 6.53-4.35-0.75-7.28-4.88-6.53-9.23l7.46-43.57c0.75-4.36 4.88-7.28 9.24-6.53z"/>
			<path class="s1" d="m472.97 48.02c4.36 0.74 7.28 4.88 6.54 9.23l-10.03 58.55c-0.75 4.36-4.88 7.28-9.24 6.54-4.35-0.75-7.28-4.88-6.53-9.24l10.03-58.55c0.74-4.35 4.88-7.28 9.23-6.53z"/>
			<path class="s1" d="m441.96 39.56c4.35 0.75 7.28 4.88 6.53 9.24l-11.92 69.58c-0.75 4.36-4.88 7.28-9.24 6.54-4.35-0.75-7.28-4.88-6.53-9.24l11.92-69.59c0.75-4.35 4.88-7.28 9.24-6.53z"/>
			<path class="s1" d="m410.08 36.13c4.35 0.74 7.28 4.88 6.53 9.23l-12.12 70.77c-0.75 4.36-4.88 7.28-9.24 6.54-4.35-0.75-7.28-4.88-6.53-9.24l12.12-70.77c0.75-4.35 4.88-7.28 9.24-6.53z"/>
			<path class="s1" d="m377.91 35.59c4.35 0.74 7.28 4.88 6.53 9.23l-15.38 89.8c-0.75 4.35-4.88 7.28-9.24 6.53-4.35-0.75-7.28-4.88-6.53-9.24l15.38-89.79c0.75-4.35 4.88-7.28 9.24-6.53z"/>
			<path class="s1" d="m344.37 38.26c4.36 0.75 7.28 4.88 6.54 9.24l-17.58 102.61c-0.75 4.35-4.88 7.28-9.23 6.53-4.36-0.75-7.29-4.88-6.54-9.24l17.58-102.6c0.74-4.36 4.88-7.28 9.23-6.54z"/>
			<path class="s1" d="m310.58 46.58c4.36 0.75 7.29 4.88 6.54 9.23l-16.85 98.37c-0.75 4.36-4.88 7.28-9.24 6.54-4.35-0.75-7.28-4.88-6.53-9.24l16.85-98.37c0.75-4.35 4.88-7.28 9.23-6.53z"/>
			<path class="s1" d="m275.95 59.21c4.36 0.75 7.28 4.88 6.54 9.24l-14.56 84.96c-0.74 4.36-4.88 7.28-9.23 6.54-4.36-0.75-7.28-4.88-6.54-9.24l14.56-84.96c0.74-4.36 4.88-7.28 9.23-6.54z"/>
			<path class="s1" d="m531.47 84.42c4.35 0.74 7.28 4.88 6.53 9.23l-3.71 21.69c-0.75 4.35-4.88 7.28-9.24 6.53-4.36-0.74-7.28-4.88-6.53-9.23l3.71-21.69c0.75-4.36 4.88-7.28 9.24-6.53z"/>
			<path class="s1" d="m242.27 66.33c4.36 0.74 7.28 4.88 6.53 9.23l-14.31 83.59c-0.75 4.35-4.88 7.28-9.24 6.53-4.36-0.75-7.28-4.88-6.53-9.24l14.31-83.58c0.75-4.35 4.88-7.28 9.24-6.53z"/>
		</g>
		<path id="Fish Audio " class="s1" d="m612.18 199.6l-19.71-3.38 19.18-111.97 78.26 13.41-3.11 18.13-58.55-10.02-5.7 33.31 50.07 8.58-3.11 18.13-50.07-8.57zm91.96 15.75l-19.22-3.29 14.3-83.49 19.22 3.3zm6.3-94.8q-5.42-0.93-8.32-4.77-2.68-3.91-1.76-9.24 0.91-5.32 4.92-7.98 4.04-2.86 9.36-1.95 5.03 0.86 7.92 4.71 3.17 3.99 2.24 9.41-0.91 5.32-5.03 8.07-4.01 2.66-9.33 1.75zm43.68 104.47q-5.91-1.01-11.82-3.24-5.69-2.29-10.53-6.06-4.5-3.92-7.19-9.55-2.58-5.62-2.37-13.4l19.52 3.35q0.61 3.55 2.98 6.29 2.48 2.66 5.86 4.25 3.68 1.64 7.23 2.25 2.26 0.39 4.86 0.63 2.73 0.06 5.16-0.53 2.54-0.58 4.11-2.04 1.81-1.72 2.32-4.67 0.49-2.86-0.92-4.73-1.09-1.91-3.78-3.38-2.37-1.53-6-2.86-6.55-2.64-14.07-5.55-7.5-3.01-12.59-7.64-2.01-1.87-3.5-3.85-1.42-2.37-2.31-4.86-0.68-2.55-0.91-5.33-0.04-2.74 0.5-5.9 1.13-6.6 4.7-10.86 3.57-4.26 8.69-6.32 5.36-2.23 11.41-2.61 6.35-0.34 12.75 0.76 8.48 1.45 14.89 5.49 6.66 3.78 10.33 10.19 3.7 6.22 3.22 14.96l-18.34-3.14q-0.11-4.08-3.86-7.05-3.52-3.14-9.73-4.2-2.07-0.36-4.6-0.39-2.52-0.12-4.85 0.49-2.21 0.43-3.89 1.97-1.67 1.44-2.13 4.1-0.38 2.27 0.48 4.34 1.09 1.92 3.15 3.49 2.38 1.52 5.6 2.88 5.22 2.12 10.81 4.39 5.76 1.9 9.7 3.79 4.91 2.16 8.38 5.6 3.8 3.29 5.34 7.91 1.75 4.57 0.65 10.97-1.31 7.69-5.44 12.26-3.82 4.52-9.44 6.5-5.61 1.98-12.14 2.18-6.21 0.15-12.23-0.88zm68.3 10.59l-19.22-3.3 19.18-111.96 19.22 3.29-6.74 39.33q4.19-3.75 8.99-5.67 4.99-1.88 10-2.14 5.15-0.44 9.58 0.32 11.93 2.05 17.64 8.4 6.02 6.31 7.28 15.55 1.35 9.26-0.5 20.11l-7.87 45.93-19.22-3.29 7.29-42.58q0.75-4.34 0.68-8.71 0.19-4.64-1.08-8.51-1.24-3.97-4.42-6.74-3.06-2.86-8.98-3.87-5.52-0.95-9.88 0.84-4.33 1.59-7.39 5.23-2.92 3.45-5.03 8.06-1.78 4.47-2.58 9.1zm132.28 22.66l-21.29-3.65 62.15-104.61 23.56 4.04 23.5 119.28-21.29-3.65-3.95-21.98-51.55-8.83zm49.19-86.34l-28.67 50.08 38.83 6.66zm86.37 110.57q-18.03-3.09-26.11-14.01-7.85-10.99-4.58-30.11l8-46.72 19.22 3.29-7.78 45.44q-1.13 6.61-0.2 11.84 1.14 5.17 4.61 8.6 3.7 3.27 9.82 4.32 6.7 1.15 10.9-0.87 4.43-2.19 6.85-6.84 2.54-4.74 3.6-10.95l7.79-45.44 19.22 3.29-8.01 46.72q-3.36 19.62-14.68 27.11-11.1 7.33-28.65 4.33zm88.81 15.21q-12.62-2.16-19.93-9.2-7.19-7.22-9.69-17.49-2.25-10.53-0.21-22.45 2.11-12.32 7.99-21.16 5.92-9.13 15.44-13.18 9.56-4.25 22.47-2.04 4.63 0.8 8.88 2.64 4.47 1.78 8.04 4.63 3.67 2.86 5.83 6.78l6.37-37.16 19.32 3.31-19.18 111.97-18.63-3.19 1.38-10.42q-3.63 3.44-8.23 5.39-4.45 1.67-9.5 2.13-5.03 0.35-10.35-0.56zm6.62-16.72q7.59 1.3 12.93-1.44 5.65-2.79 9.11-8.18 3.48-5.49 4.64-12.29 1.2-7-0.3-13.04-1.39-6.12-5.73-10.42-4.23-4.27-11.92-5.59-7.99-1.37-13.46 1.55-5.22 2.66-8.42 8.3-2.97 5.47-4.15 12.37-0.86 5.03-0.67 9.83 0.52 4.66 2.46 8.74 1.99 3.79 5.68 6.55 3.82 2.59 9.83 3.62zm76.46 29.84l-19.32-3.31 14.28-83.39 19.32 3.31zm6.3-94.8q-5.52-0.94-8.3-4.87-2.77-3.92-1.88-9.15 0.93-5.42 4.94-8.08 4.14-2.84 9.36-1.95 5.03 0.86 7.9 4.81 3.19 3.89 2.26 9.31-0.91 5.32-5.03 8.07-3.93 2.77-9.25 1.86zm50.78 105.69q-12.81-2.19-21.28-9.02-8.35-6.91-11.64-17.31-3.28-10.51-1.06-23.42 2.24-13.11 8.81-21.82 6.79-8.88 16.97-12.62 10.19-3.83 22.91-1.66 12.71 2.18 20.92 9.37 8.27 6.8 11.53 17.4 3.29 10.4 1.02 23.61-2.19 12.81-8.79 21.73-6.45 8.63-16.51 12.29-9.97 3.67-22.88 1.45zm2.81-17.57q7.89 1.35 13.29-1.18 5.55-2.8 8.7-8.15 3.25-5.32 4.38-11.93 1.15-6.7-0.12-12.9-1.18-6.19-5.5-10.58-4.1-4.46-12.09-5.83-7.88-1.35-13.44 1.45-5.43 2.73-8.7 8.15-3.14 5.35-4.31 12.15-1.15 6.7 0.03 12.89 1.4 6.02 5.52 10.38 4.36 4.19 12.24 5.55z"/>
	</g>
</svg>