<svg version="1.2" xmlns="http://www.w3.org/2000/svg" viewBox="-53.99999999999998 -41.999999999999986 1521 333.00000000000006" width="1521" height="334">
	<style>
		.s0 { fill: #b1b3b4 } 
		.s1 { fill: #000000 } 
	</style>
	<g id="Layer 1">
		<g id="fish">
			<path class="s0" d="m465.7 123.9c4.42 0 8 3.58 8 8v11.1c0 4.42-3.58 8-8 8-4.42 0-8-3.58-8-8v-11.1c0-4.42 3.58-8 8-8z"/>
			<path class="s0" d="m433.7 130.6c4.42 0 8 3.58 8 8v31.4c0 4.42-3.58 8-8 8-4.42 0-8-3.58-8-8v-31.4c0-4.42 3.58-8 8-8z"/>
			<path class="s0" d="m401.9 138.3c4.42 0 8 3.58 8 8v36.1c0 4.42-3.58 8-8 8-4.42 0-8-3.58-8-8v-36.1c0-4.42 3.58-8 8-8z"/>
			<path class="s0" d="m369.9 144.7c4.42 0 8 3.58 8 8v35.6c0 4.42-3.58 8-8 8-4.42 0-8-3.58-8-8v-35.6c0-4.42 3.58-8 8-8z"/>
			<path class="s0" d="m337.9 150.4c4.42 0 8 3.58 8 8v30c0 4.42-3.58 8-8 8-4.42 0-8-3.58-8-8v-30c0-4.42 3.58-8 8-8z"/>
			<path class="s0" d="m306.1 173.3c4.42 0 8 3.58 8 8v5.4c0 4.42-3.58 8-8 8-4.42 0-8-3.58-8-8v-5.4c0-4.42 3.58-8 8-8z"/>
			<path class="s1" d="m47.1 74c4.42 0 8 3.58 8 8v3.4c0 4.42-3.58 8-8 8-4.42 0-8-3.58-8-8v-3.4c0-4.42 3.58-8 8-8z"/>
			<path class="s1" d="m80 76.7c4.42 0 8 3.58 8 8v14.7c0 4.42-3.58 8-8 8-4.42 0-8-3.58-8-8v-14.7c0-4.42 3.58-8 8-8z"/>
			<path class="s1" d="m112.9 72.4c4.42 0 8 3.58 8 8v61.4c0 4.42-3.58 8-8 8-4.42 0-8-3.58-8-8v-61.4c0-4.42 3.58-8 8-8z"/>
			<path class="s1" d="m145.9 66c4.42 0 8 3.58 8 8v4c0 4.42-3.58 8-8 8-4.42 0-8-3.58-8-8v-4c0-4.42 3.58-8 8-8z"/>
			<path class="s1" d="m145.9 119.4c4.42 0 8 3.58 8 8v42.3c0 4.42-3.58 8-8 8-4.42 0-8-3.58-8-8v-42.3c0-4.42 3.58-8 8-8z"/>
			<path class="s1" d="m433.7 59.2c4.42 0 8 3.58 8 8v44.2c0 4.42-3.58 8-8 8-4.42 0-8-3.58-8-8v-44.2c0-4.42 3.58-8 8-8z"/>
			<path class="s1" d="m401.9 52.1c4.42 0 8 3.58 8 8v59.4c0 4.42-3.58 8-8 8-4.42 0-8-3.58-8-8v-59.4c0-4.42 3.58-8 8-8z"/>
			<path class="s1" d="m369.9 49c4.42 0 8 3.58 8 8v70.6c0 4.42-3.58 8-8 8-4.42 0-8-3.58-8-8v-70.6c0-4.42 3.58-8 8-8z"/>
			<path class="s1" d="m337.9 51c4.42 0 8 3.58 8 8v71.8c0 4.42-3.58 8-8 8-4.42 0-8-3.58-8-8v-71.8c0-4.42 3.58-8 8-8z"/>
			<path class="s1" d="m306.1 55.9c4.42 0 8 3.58 8 8v91.1c0 4.42-3.58 8-8 8-4.42 0-8-3.58-8-8v-91.1c0-4.42 3.58-8 8-8z"/>
			<path class="s1" d="m273.5 64.2c4.42 0 8 3.58 8 8v104.1c0 4.42-3.58 8-8 8-4.42 0-8-3.58-8-8v-104.1c0-4.42 3.58-8 8-8z"/>
			<path class="s1" d="m241.6 78.1c4.42 0 8 3.58 8 8v99.8c0 4.42-3.58 8-8 8-4.42 0-8-3.58-8-8v-99.8c0-4.42 3.58-8 8-8z"/>
			<path class="s1" d="m209.6 96.4c4.42 0 8 3.58 8 8v86.2c0 4.42-3.58 8-8 8-4.42 0-8-3.58-8-8v-86.2c0-4.42 3.58-8 8-8z"/>
			<path class="s1" d="m465.7 78.1c4.42 0 8 3.58 8 8v22c0 4.42-3.58 8-8 8-4.42 0-8-3.58-8-8v-22c0-4.42 3.58-8 8-8z"/>
			<path class="s1" d="m177.6 109.1c4.42 0 8 3.58 8 8v84.8c0 4.42-3.58 8-8 8-4.42 0-8-3.58-8-8v-84.8c0-4.42 3.58-8 8-8z"/>
		</g>
		<path id="Fish Audio" class="s1" aria-label="Fish Audio"  d="m564.7 178h-20v-113.6h79.4v18.4h-59.4v33.8h50.8v18.4h-50.8zm93.3 0h-19.5v-84.7h19.5zm-9.8-94.5q-5.5 0-9-3.3-3.3-3.4-3.3-8.8 0-5.4 3.5-8.7 3.5-3.5 8.9-3.5 5.1 0 8.6 3.3 3.8 3.4 3.8 8.9 0 5.4-3.6 8.8-3.5 3.3-8.9 3.3zm60.7 95.6q-6 0-12.2-1.2-6-1.3-11.4-4.2-5.1-3.1-8.7-8.2-3.5-5.1-4.6-12.8h19.8q1.2 3.4 4 5.7 2.9 2.2 6.5 3.2 3.9 1 7.5 1 2.3 0 4.9-0.2 2.7-0.4 5-1.4 2.4-1 3.7-2.7 1.5-2 1.5-5 0-2.9-1.7-4.5-1.4-1.7-4.3-2.7-2.6-1.1-6.4-1.8-6.9-1.5-14.8-3.1-7.9-1.7-13.7-5.4-2.3-1.5-4.1-3.2-1.8-2.1-3.1-4.4-1.1-2.4-1.8-5.1-0.5-2.7-0.5-5.9 0-6.7 2.8-11.5 2.8-4.8 7.5-7.7 4.9-3.1 10.8-4.5 6.2-1.4 12.7-1.4 8.6 0 15.6 2.9 7.2 2.6 11.9 8.3 4.7 5.5 5.7 14.2h-18.6q-0.8-4-5-6.3-4-2.5-10.3-2.5-2.1 0-4.6 0.4-2.5 0.3-4.7 1.3-2.1 0.8-3.5 2.6-1.4 1.7-1.4 4.4 0 2.3 1.2 4.2 1.4 1.7 3.7 2.9 2.6 1.1 6 1.9 5.5 1.2 11.4 2.5 6 0.9 10.2 2.1 5.2 1.3 9.2 4.1 4.3 2.6 6.6 6.9 2.5 4.2 2.5 10.7 0 7.8-3.3 13-3 5.1-8.2 8-5.2 2.9-11.6 4.2-6.1 1.2-12.2 1.2zm69.1-1.1h-19.5v-113.6h19.5v39.9q3.5-4.4 7.9-7.1 4.6-2.7 9.5-3.8 5-1.3 9.5-1.3 12.1 0 18.8 5.3 7 5.2 9.8 14.1 2.9 8.9 2.9 19.9v46.6h-19.5v-43.2q0-4.4-0.8-8.7-0.6-4.6-2.5-8.2-1.9-3.7-5.5-5.9-3.5-2.3-9.5-2.3-5.6 0-9.6 2.5-4 2.3-6.4 6.4-2.3 3.9-3.6 8.8-1 4.7-1 9.4zm134.2 0h-21.6l43.6-113.6h23.9l43.3 113.6h-21.6l-7.6-21h-52.3zm33.9-93.4l-19.8 54.2h39.4zm103.8 94.4q-18.3 0-28.1-9.4-9.6-9.5-9.6-28.9v-47.4h19.5v46.1q0 6.7 1.8 11.7 2 4.9 6 7.7 4.2 2.6 10.4 2.6 6.8 0 10.6-2.7 4-2.9 5.6-7.9 1.7-5.1 1.7-11.4v-46.1h19.5v47.4q0 19.9-9.9 29.2-9.7 9.1-27.5 9.1zm90.1 0q-12.8 0-21.2-5.7-8.3-5.9-12.5-15.6-4-10-4-22.1 0-12.5 4.3-22.2 4.3-10 13-15.6 8.7-5.8 21.8-5.8 4.7 0 9.2 1.1 4.7 1 8.7 3.2 4.1 2.2 6.9 5.7v-37.7h19.6v113.6h-18.9l-0.4-10.5q-3 4-7.2 6.7-4.1 2.4-9 3.7-4.9 1.2-10.3 1.2zm3.7-17.6q7.7 0 12.5-3.6 5.1-3.7 7.6-9.6 2.5-6 2.5-12.9 0-7.1-2.5-12.8-2.4-5.8-7.4-9.3-4.9-3.5-12.7-3.5-8.1 0-13 3.8-4.7 3.5-6.9 9.6-2 5.9-2 12.9 0 5.1 1 9.8 1.3 4.5 3.9 8.2 2.6 3.4 6.7 5.5 4.2 1.9 10.3 1.9zm80.4 16.5h-19.6v-84.6h19.6zm-9.8-94.5q-5.6 0-9-3.4-3.4-3.4-3.4-8.7 0-5.5 3.5-8.8 3.6-3.5 8.9-3.5 5.1 0 8.6 3.4 3.8 3.3 3.8 8.8 0 5.4-3.6 8.8-3.4 3.4-8.8 3.4zm67.9 95.6q-13 0-22.5-5.3-9.4-5.4-14.4-15.1-5-9.8-5-22.9 0-13.3 5-23 5.2-9.9 14.6-15.3 9.4-5.5 22.3-5.5 12.9 0 22.2 5.7 9.3 5.3 14.3 15.2 5 9.7 5 23.1 0 13-5 22.9-4.9 9.6-14.2 14.9-9.2 5.3-22.3 5.3zm-0.2-17.8q8 0 12.9-3.4 5-3.7 7.2-9.5 2.3-5.8 2.3-12.5 0-6.8-2.3-12.7-2.2-5.9-7.2-9.5-4.8-3.7-12.9-3.7-8 0-13 3.7-4.9 3.6-7.2 9.5-2.2 5.8-2.2 12.7 0 6.8 2.2 12.7 2.4 5.7 7.2 9.3 5 3.4 13 3.4z"/>
	</g>
</svg>