<svg version="1.2" xmlns="http://www.w3.org/2000/svg" viewBox="161.00000000000003 110.00000000000003 604.9999999999998 311.0000000000002" width="1024" height="528">
	<style>
        .s0 { opacity: .25;fill: #000000 }
        .s1 { fill: none;stroke: #bdbdbd;stroke-miterlimit:10;stroke-width: 1 }
        .s2 { fill: #b1b3b4 }
        .s3 { fill: #000000 }
    </style>
	<g id="Clearance Marker">
		<path id="x" class="s0" aria-label="x"  d="m700 379h-3.8l5.2-7.4-4.9-7.2h3.9l3.2 4.9 3.1-4.9h3.8l-4.9 7.2 5.3 7.4h-4l-3.5-5z"/>
		<path id="x copy" class="s0" aria-label="x"  d="m265 166h-3.8l5.2-7.4-4.9-7.2h3.9l3.2 4.9 3.1-4.9h3.8l-4.9 7.2 5.3 7.4h-4l-3.5-5z"/>
	</g>
	<g id="Border">
		<path id="LR" fill-rule="evenodd" class="s1" d="m293.71 132.9v263.4z"/>
		<path id="LL" fill-rule="evenodd" class="s1" d="m193.71 133.34v262.5z"/>
		<path id="LR copy 2" fill-rule="evenodd" class="s1" d="m243.71 132.9v263.4z"/>
		<path id="LL copy 2" fill-rule="evenodd" class="s1" d="m193.71 133.34v262.5z"/>
		<path id="LR copy" fill-rule="evenodd" class="s1" d="m729.71 132.9v263.4z"/>
		<path id="LL copy" fill-rule="evenodd" class="s1" d="m679.71 133.34v262.5z"/>
		<path id="BB" fill-rule="evenodd" class="s1" d="m193.21 396.02h537z"/>
		<path id="BT" fill-rule="evenodd" class="s1" d="m193.35 346.02h536.72z"/>
		<path id="TB" fill-rule="evenodd" class="s1" d="m193.35 183.02h535.87z"/>
		<path id="TT" fill-rule="evenodd" class="s1" d="m193.21 133.02h537z"/>
	</g>
	<g id="fish">
		<path class="s2" d="m670.7 258.9c4.42 0 8 3.58 8 8v11.1c0 4.42-3.58 8-8 8-4.42 0-8-3.58-8-8v-11.1c0-4.42 3.58-8 8-8z"/>
		<path class="s2" d="m638.7 265.6c4.42 0 8 3.58 8 8v31.4c0 4.42-3.58 8-8 8-4.42 0-8-3.58-8-8v-31.4c0-4.42 3.58-8 8-8z"/>
		<path class="s2" d="m606.9 273.3c4.42 0 8 3.58 8 8v36.1c0 4.42-3.58 8-8 8-4.42 0-8-3.58-8-8v-36.1c0-4.42 3.58-8 8-8z"/>
		<path class="s2" d="m574.9 279.7c4.42 0 8 3.58 8 8v35.6c0 4.42-3.58 8-8 8-4.42 0-8-3.58-8-8v-35.6c0-4.42 3.58-8 8-8z"/>
		<path class="s2" d="m542.9 285.4c4.42 0 8 3.58 8 8v30c0 4.42-3.58 8-8 8-4.42 0-8-3.58-8-8v-30c0-4.42 3.58-8 8-8z"/>
		<path class="s2" d="m511.1 308.3c4.42 0 8 3.58 8 8v5.4c0 4.42-3.58 8-8 8-4.42 0-8-3.58-8-8v-5.4c0-4.42 3.58-8 8-8z"/>
		<path class="s3" d="m252.1 209c4.42 0 8 3.58 8 8v3.4c0 4.42-3.58 8-8 8-4.42 0-8-3.58-8-8v-3.4c0-4.42 3.58-8 8-8z"/>
		<path class="s3" d="m285 211.7c4.42 0 8 3.58 8 8v14.7c0 4.42-3.58 8-8 8-4.42 0-8-3.58-8-8v-14.7c0-4.42 3.58-8 8-8z"/>
		<path class="s3" d="m317.9 207.4c4.42 0 8 3.58 8 8v61.4c0 4.42-3.58 8-8 8-4.42 0-8-3.58-8-8v-61.4c0-4.42 3.58-8 8-8z"/>
		<path class="s3" d="m350.9 201c4.42 0 8 3.58 8 8v4c0 4.42-3.58 8-8 8-4.42 0-8-3.58-8-8v-4c0-4.42 3.58-8 8-8z"/>
		<path class="s3" d="m350.9 254.4c4.42 0 8 3.58 8 8v42.3c0 4.42-3.58 8-8 8-4.42 0-8-3.58-8-8v-42.3c0-4.42 3.58-8 8-8z"/>
		<path class="s3" d="m638.7 194.2c4.42 0 8 3.58 8 8v44.2c0 4.42-3.58 8-8 8-4.42 0-8-3.58-8-8v-44.2c0-4.42 3.58-8 8-8z"/>
		<path class="s3" d="m606.9 187.1c4.42 0 8 3.58 8 8v59.4c0 4.42-3.58 8-8 8-4.42 0-8-3.58-8-8v-59.4c0-4.42 3.58-8 8-8z"/>
		<path class="s3" d="m574.9 184c4.42 0 8 3.58 8 8v70.6c0 4.42-3.58 8-8 8-4.42 0-8-3.58-8-8v-70.6c0-4.42 3.58-8 8-8z"/>
		<path class="s3" d="m542.9 186c4.42 0 8 3.58 8 8v71.8c0 4.42-3.58 8-8 8-4.42 0-8-3.58-8-8v-71.8c0-4.42 3.58-8 8-8z"/>
		<path class="s3" d="m511.1 190.9c4.42 0 8 3.58 8 8v91.1c0 4.42-3.58 8-8 8-4.42 0-8-3.58-8-8v-91.1c0-4.42 3.58-8 8-8z"/>
		<path class="s3" d="m478.5 199.2c4.42 0 8 3.58 8 8v104.1c0 4.42-3.58 8-8 8-4.42 0-8-3.58-8-8v-104.1c0-4.42 3.58-8 8-8z"/>
		<path class="s3" d="m446.6 213.1c4.42 0 8 3.58 8 8v99.8c0 4.42-3.58 8-8 8-4.42 0-8-3.58-8-8v-99.8c0-4.42 3.58-8 8-8z"/>
		<path class="s3" d="m414.6 231.4c4.42 0 8 3.58 8 8v86.2c0 4.42-3.58 8-8 8-4.42 0-8-3.58-8-8v-86.2c0-4.42 3.58-8 8-8z"/>
		<path class="s3" d="m670.7 213.1c4.42 0 8 3.58 8 8v22c0 4.42-3.58 8-8 8-4.42 0-8-3.58-8-8v-22c0-4.42 3.58-8 8-8z"/>
		<path class="s3" d="m382.6 244.1c4.42 0 8 3.58 8 8v84.8c0 4.42-3.58 8-8 8-4.42 0-8-3.58-8-8v-84.8c0-4.42 3.58-8 8-8z"/>
	</g>
</svg>