<svg version="1.2" xmlns="http://www.w3.org/2000/svg" viewBox="74 110.00000000000001 807.9999999999998 311.0000000000004" width="808" height="312">
	<style>
        .s0 { opacity: .25;fill: #ffffff }
        .s1 { fill: none;stroke: #424242;stroke-miterlimit:10;stroke-width: 1 }
        .s2 { fill: #4e4c4b }
        .s3 { fill: #ffffff }
	</style>
	<g id="Clearance Marker">
		<path id="x" class="s0" aria-label="x"  d="m725 368h-3.8l5.2-7.4-4.9-7.2h3.9l3.2 4.9 3.1-4.9h3.8l-4.9 7.2 5.3 7.4h-4l-3.5-5z"/>
		<path id="x copy" class="s0" aria-label="x"  d="m290 155h-3.8l5.2-7.4-4.9-7.2h3.9l3.2 4.9 3.1-4.9h3.8l-4.9 7.2 5.3 7.4h-4l-3.5-5z"/>
	</g>
	<g id="Border">
		<path id="LR" fill-rule="evenodd" class="s1" d="m318.71 121.9v263.4z"/>
		<path id="LL" fill-rule="evenodd" class="s1" d="m218.71 122.34v262.5z"/>
		<path id="LR copy 2" fill-rule="evenodd" class="s1" d="m268.71 121.9v263.4z"/>
		<path id="LL copy 2" fill-rule="evenodd" class="s1" d="m218.71 122.34v262.5z"/>
		<path id="LR copy" fill-rule="evenodd" class="s1" d="m754.71 121.9v263.4z"/>
		<path id="LL copy" fill-rule="evenodd" class="s1" d="m704.71 122.34v262.5z"/>
		<path id="BB" fill-rule="evenodd" class="s1" d="m218.21 385.02h537z"/>
		<path id="BT" fill-rule="evenodd" class="s1" d="m218.35 335.02h536.72z"/>
		<path id="TB" fill-rule="evenodd" class="s1" d="m218.35 172.02h535.87z"/>
		<path id="TT" fill-rule="evenodd" class="s1" d="m218.21 122.02h537z"/>
	</g>
	<g id="fish">
		<path class="s2" d="m695.7 247.9c4.42 0 8 3.58 8 8v11.1c0 4.42-3.58 8-8 8-4.42 0-8-3.58-8-8v-11.1c0-4.42 3.58-8 8-8z"/>
		<path class="s2" d="m663.7 254.6c4.42 0 8 3.58 8 8v31.4c0 4.42-3.58 8-8 8-4.42 0-8-3.58-8-8v-31.4c0-4.42 3.58-8 8-8z"/>
		<path class="s2" d="m631.9 262.3c4.42 0 8 3.58 8 8v36.1c0 4.42-3.58 8-8 8-4.42 0-8-3.58-8-8v-36.1c0-4.42 3.58-8 8-8z"/>
		<path class="s2" d="m599.9 268.7c4.42 0 8 3.58 8 8v35.6c0 4.42-3.58 8-8 8-4.42 0-8-3.58-8-8v-35.6c0-4.42 3.58-8 8-8z"/>
		<path class="s2" d="m567.9 274.4c4.42 0 8 3.58 8 8v30c0 4.42-3.58 8-8 8-4.42 0-8-3.58-8-8v-30c0-4.42 3.58-8 8-8z"/>
		<path class="s2" d="m536.1 297.3c4.42 0 8 3.58 8 8v5.4c0 4.42-3.58 8-8 8-4.42 0-8-3.58-8-8v-5.4c0-4.42 3.58-8 8-8z"/>
		<path class="s3" d="m277.1 198c4.42 0 8 3.58 8 8v3.4c0 4.42-3.58 8-8 8-4.42 0-8-3.58-8-8v-3.4c0-4.42 3.58-8 8-8z"/>
		<path class="s3" d="m310 200.7c4.42 0 8 3.58 8 8v14.7c0 4.42-3.58 8-8 8-4.42 0-8-3.58-8-8v-14.7c0-4.42 3.58-8 8-8z"/>
		<path class="s3" d="m342.9 196.4c4.42 0 8 3.58 8 8v61.4c0 4.42-3.58 8-8 8-4.42 0-8-3.58-8-8v-61.4c0-4.42 3.58-8 8-8z"/>
		<path class="s3" d="m375.9 190c4.42 0 8 3.58 8 8v4c0 4.42-3.58 8-8 8-4.42 0-8-3.58-8-8v-4c0-4.42 3.58-8 8-8z"/>
		<path class="s3" d="m375.9 243.4c4.42 0 8 3.58 8 8v42.3c0 4.42-3.58 8-8 8-4.42 0-8-3.58-8-8v-42.3c0-4.42 3.58-8 8-8z"/>
		<path class="s3" d="m663.7 183.2c4.42 0 8 3.58 8 8v44.2c0 4.42-3.58 8-8 8-4.42 0-8-3.58-8-8v-44.2c0-4.42 3.58-8 8-8z"/>
		<path class="s3" d="m631.9 176.1c4.42 0 8 3.58 8 8v59.4c0 4.42-3.58 8-8 8-4.42 0-8-3.58-8-8v-59.4c0-4.42 3.58-8 8-8z"/>
		<path class="s3" d="m599.9 173c4.42 0 8 3.58 8 8v70.6c0 4.42-3.58 8-8 8-4.42 0-8-3.58-8-8v-70.6c0-4.42 3.58-8 8-8z"/>
		<path class="s3" d="m567.9 175c4.42 0 8 3.58 8 8v71.8c0 4.42-3.58 8-8 8-4.42 0-8-3.58-8-8v-71.8c0-4.42 3.58-8 8-8z"/>
		<path class="s3" d="m536.1 179.9c4.42 0 8 3.58 8 8v91.1c0 4.42-3.58 8-8 8-4.42 0-8-3.58-8-8v-91.1c0-4.42 3.58-8 8-8z"/>
		<path class="s3" d="m503.5 188.2c4.42 0 8 3.58 8 8v104.1c0 4.42-3.58 8-8 8-4.42 0-8-3.58-8-8v-104.1c0-4.42 3.58-8 8-8z"/>
		<path class="s3" d="m471.6 202.1c4.42 0 8 3.58 8 8v99.8c0 4.42-3.58 8-8 8-4.42 0-8-3.58-8-8v-99.8c0-4.42 3.58-8 8-8z"/>
		<path class="s3" d="m439.6 220.4c4.42 0 8 3.58 8 8v86.2c0 4.42-3.58 8-8 8-4.42 0-8-3.58-8-8v-86.2c0-4.42 3.58-8 8-8z"/>
		<path class="s3" d="m695.7 202.1c4.42 0 8 3.58 8 8v22c0 4.42-3.58 8-8 8-4.42 0-8-3.58-8-8v-22c0-4.42 3.58-8 8-8z"/>
		<path class="s3" d="m407.6 233.1c4.42 0 8 3.58 8 8v84.8c0 4.42-3.58 8-8 8-4.42 0-8-3.58-8-8v-84.8c0-4.42 3.58-8 8-8z"/>
	</g>
</svg>