<svg version="1.2" xmlns="http://www.w3.org/2000/svg" viewBox="0 0 1521 333" width="1521" height="333">
	<style>
		.s0 { fill: #4e4c4b }
		.s1 { fill: #ffffff }
	</style>
	<g id="Layer 1">
		<g id="fish">
			<path class="s0" d="m603.74 160.9c3.21 0 5.81 3.58 5.81 8v11.1c0 4.42-2.6 8-5.81 8-3.21 0-5.81-3.58-5.81-8v-11.1c0-4.42 2.6-8 5.81-8z"/>
			<path class="s0" d="m580.5 167.6c3.21 0 5.81 3.58 5.81 8v31.4c0 4.42-2.6 8-5.81 8-3.2 0-5.8-3.58-5.8-8v-31.4c0-4.42 2.6-8 5.8-8z"/>
			<path class="s0" d="m557.42 175.3c3.2 0 5.8 3.58 5.8 8v36.1c0 4.42-2.6 8-5.8 8-3.21 0-5.81-3.58-5.81-8v-36.1c0-4.42 2.6-8 5.81-8z"/>
			<path class="s0" d="m534.18 181.7c3.21 0 5.81 3.58 5.81 8v35.6c0 4.42-2.6 8-5.81 8-3.21 0-5.81-3.58-5.81-8v-35.6c0-4.42 2.6-8 5.81-8z"/>
			<path class="s0" d="m510.95 187.4c3.21 0 5.81 3.58 5.81 8v30c0 4.42-2.6 8-5.81 8-3.21 0-5.81-3.58-5.81-8v-30c0-4.42 2.6-8 5.81-8z"/>
			<path class="s0" d="m487.86 210.3c3.21 0 5.81 3.58 5.81 8v5.4c0 4.42-2.6 8-5.81 8-3.21 0-5.81-3.58-5.81-8v-5.4c0-4.42 2.6-8 5.81-8z"/>
			<path class="s1" d="m299.81 111c3.21 0 5.81 3.58 5.81 8v3.4c0 4.42-2.6 8-5.81 8-3.21 0-5.81-3.58-5.81-8v-3.4c0-4.42 2.6-8 5.81-8z"/>
			<path class="s1" d="m323.7 113.7c3.21 0 5.8 3.58 5.8 8v14.7c0 4.42-2.59 8-5.8 8-3.21 0-5.81-3.58-5.81-8v-14.7c0-4.42 2.6-8 5.81-8z"/>
			<path class="s1" d="m347.58 109.4c3.21 0 5.81 3.58 5.81 8v61.4c0 4.42-2.6 8-5.81 8-3.21 0-5.81-3.58-5.81-8v-61.4c0-4.42 2.6-8 5.81-8z"/>
			<path class="s1" d="m371.54 103c3.21 0 5.81 3.58 5.81 8v4c0 4.42-2.6 8-5.81 8-3.21 0-5.81-3.58-5.81-8v-4c0-4.42 2.6-8 5.81-8z"/>
			<path class="s1" d="m371.54 156.4c3.21 0 5.81 3.58 5.81 8v42.3c0 4.42-2.6 8-5.81 8-3.21 0-5.81-3.58-5.81-8v-42.3c0-4.42 2.6-8 5.81-8z"/>
			<path class="s1" d="m580.5 96.2c3.21 0 5.81 3.58 5.81 8v44.2c0 4.42-2.6 8-5.81 8-3.2 0-5.8-3.58-5.8-8v-44.2c0-4.42 2.6-8 5.8-8z"/>
			<path class="s1" d="m557.42 89.1c3.2 0 5.8 3.58 5.8 8v59.4c0 4.42-2.6 8-5.8 8-3.21 0-5.81-3.58-5.81-8v-59.4c0-4.42 2.6-8 5.81-8z"/>
			<path class="s1" d="m534.18 86c3.21 0 5.81 3.58 5.81 8v70.6c0 4.42-2.6 8-5.81 8-3.21 0-5.81-3.58-5.81-8v-70.6c0-4.42 2.6-8 5.81-8z"/>
			<path class="s1" d="m510.95 88c3.21 0 5.81 3.58 5.81 8v71.8c0 4.42-2.6 8-5.81 8-3.21 0-5.81-3.58-5.81-8v-71.8c0-4.42 2.6-8 5.81-8z"/>
			<path class="s1" d="m487.86 92.9c3.21 0 5.81 3.58 5.81 8v91.1c0 4.42-2.6 8-5.81 8-3.21 0-5.81-3.58-5.81-8v-91.1c0-4.42 2.6-8 5.81-8z"/>
			<path class="s1" d="m464.19 101.2c3.21 0 5.81 3.58 5.81 8v104.1c0 4.42-2.6 8-5.81 8-3.21 0-5.81-3.58-5.81-8v-104.1c0-4.42 2.6-8 5.81-8z"/>
			<path class="s1" d="m441.03 115.1c3.21 0 5.81 3.58 5.81 8v99.8c0 4.42-2.6 8-5.81 8-3.21 0-5.81-3.58-5.81-8v-99.8c0-4.42 2.6-8 5.81-8z"/>
			<path class="s1" d="m417.79 133.4c3.21 0 5.81 3.58 5.81 8v86.2c0 4.42-2.6 8-5.81 8-3.21 0-5.8-3.58-5.8-8v-86.2c0-4.42 2.59-8 5.8-8z"/>
			<path class="s1" d="m603.74 115.1c3.21 0 5.81 3.58 5.81 8v22c0 4.42-2.6 8-5.81 8-3.21 0-5.81-3.58-5.81-8v-22c0-4.42 2.6-8 5.81-8z"/>
			<path class="s1" d="m394.56 146.1c3.21 0 5.81 3.58 5.81 8v84.8c0 4.42-2.6 8-5.81 8-3.21 0-5.81-3.58-5.81-8v-84.8c0-4.42 2.6-8 5.81-8z"/>
		</g>
		<path id="Fish Audio " class="s1" d="m675.62 215h-14.52v-113.6h57.65v18.4h-43.13v33.8h36.88v18.4h-36.88zm67.74 0h-14.16v-84.7h14.16zm-7.12-94.5q-3.99 0-6.53-3.3-2.4-3.4-2.4-8.8 0-5.4 2.55-8.7 2.54-3.5 6.46-3.5 3.7 0 6.24 3.3 2.76 3.4 2.76 8.9 0 5.4-2.61 8.8-2.54 3.3-6.47 3.3zm44.08 95.6q-4.36 0-8.86-1.2-4.36-1.3-8.28-4.2-3.7-3.1-6.32-8.2-2.54-5.1-3.33-12.8h14.37q0.87 3.4 2.91 5.7 2.1 2.2 4.71 3.2 2.84 1 5.45 1 1.67 0 3.56-0.2 1.96-0.4 3.63-1.4 1.74-1 2.68-2.7 1.09-2 1.09-5 0-2.9-1.23-4.5-1.02-1.7-3.12-2.7-1.89-1.1-4.65-1.8-5.01-1.5-10.75-3.1-5.73-1.7-9.94-5.4-1.67-1.5-2.98-3.2-1.31-2.1-2.25-4.4-0.8-2.4-1.31-5.1-0.36-2.7-0.36-5.9 0-6.7 2.03-11.5 2.04-4.8 5.45-7.7 3.56-3.1 7.84-4.5 4.5-1.4 9.22-1.4 6.25 0 11.33 2.9 5.23 2.6 8.64 8.3 3.41 5.5 4.14 14.2h-13.51q-0.58-4-3.63-6.3-2.9-2.5-7.48-2.5-1.52 0-3.34 0.4-1.81 0.3-3.41 1.3-1.52 0.8-2.54 2.6-1.02 1.7-1.02 4.4 0 2.3 0.87 4.2 1.02 1.7 2.69 2.9 1.89 1.1 4.36 1.9 3.99 1.2 8.27 2.5 4.36 0.9 7.41 2.1 3.78 1.3 6.68 4.1 3.12 2.6 4.79 6.9 1.82 4.2 1.82 10.7 0 7.8-2.4 13-2.18 5.1-5.95 8-3.78 2.9-8.43 4.2-4.42 1.2-8.85 1.2zm50.17-1.1h-14.16v-113.6h14.16v39.9q2.54-4.4 5.73-7.1 3.34-2.7 6.9-3.8 3.63-1.3 6.9-1.3 8.78 0 13.65 5.3 5.08 5.2 7.11 14.1 2.11 8.9 2.11 19.9v46.6h-14.16v-43.2q0-4.4-0.58-8.7-0.44-4.6-1.81-8.2-1.38-3.7-4-5.9-2.54-2.3-6.9-2.3-4.06 0-6.97 2.5-2.9 2.3-4.64 6.4-1.67 3.9-2.62 8.8-0.72 4.7-0.72 9.4zm97.44 0h-15.69l31.66-113.6h17.35l31.44 113.6h-15.68l-5.52-21h-37.97zm24.61-93.4l-14.38 54.2h28.61zm75.37 94.4q-13.29 0-20.41-9.4-6.97-9.5-6.97-28.9v-47.4h14.16v46.1q0 6.7 1.31 11.7 1.45 4.9 4.35 7.7 3.05 2.6 7.56 2.6 4.93 0 7.69-2.7 2.91-2.9 4.07-7.9 1.23-5.1 1.23-11.4v-46.1h14.16v47.4q0 19.9-7.19 29.2-7.04 9.1-19.96 9.1zm65.41 0q-9.29 0-15.39-5.7-6.03-5.9-9.07-15.6-2.91-10-2.91-22.1 0-12.5 3.12-22.2 3.13-10 9.44-15.6 6.32-5.8 15.83-5.8 3.41 0 6.68 1.1 3.41 1 6.32 3.2 2.97 2.2 5.01 5.7v-37.7h14.23v113.6h-13.73l-0.29-10.5q-2.17 4-5.22 6.7-2.98 2.4-6.54 3.7-3.56 1.2-7.48 1.2zm2.69-17.6q5.59 0 9.08-3.6 3.7-3.7 5.51-9.6 1.82-6 1.82-12.9 0-7.1-1.82-12.8-1.74-5.8-5.37-9.3-3.56-3.5-9.22-3.5-5.88 0-9.44 3.8-3.41 3.5-5.01 9.6-1.45 5.9-1.45 12.9 0 5.1 0.73 9.8 0.94 4.5 2.83 8.2 1.88 3.4 4.86 5.5 3.05 1.9 7.48 1.9zm58.38 16.5h-14.24v-84.6h14.24zm-7.12-94.5q-4.07 0-6.53-3.4-2.47-3.4-2.47-8.7 0-5.5 2.54-8.8 2.61-3.5 6.46-3.5 3.7 0 6.24 3.4 2.76 3.3 2.76 8.8 0 5.4-2.61 8.8-2.47 3.4-6.39 3.4zm49.3 95.6q-9.44 0-16.34-5.3-6.82-5.4-10.45-15.1-3.63-9.8-3.63-22.9 0-13.3 3.63-23 3.77-9.9 10.6-15.3 6.82-5.5 16.19-5.5 9.37 0 16.12 5.7 6.75 5.3 10.38 15.2 3.63 9.7 3.63 23.1 0 13-3.63 22.9-3.56 9.6-10.31 14.9-6.68 5.3-16.19 5.3zm-0.15-17.8q5.81 0 9.37-3.4 3.63-3.7 5.23-9.5 1.67-5.8 1.67-12.5 0-6.8-1.67-12.7-1.6-5.9-5.23-9.5-3.48-3.7-9.37-3.7-5.8 0-9.43 3.7-3.56 3.6-5.23 9.5-1.6 5.8-1.6 12.7 0 6.8 1.6 12.7 1.74 5.7 5.23 9.3 3.63 3.4 9.43 3.4z"/>
	</g>
</svg>